<?xml version="1.0" encoding="UTF-8" standalone="no"?>
<svg
   id="svg831"
   width="64mm"
   height="64mm"
   viewBox="0 0 64 64"
   version="1.1"
   sodipodi:docname="icon.svg"
   inkscape:version="1.2.2 (b0a8486541, 2022-12-01)"
   xml:space="preserve"
   xmlns:inkscape="http://www.inkscape.org/namespaces/inkscape"
   xmlns:sodipodi="http://sodipodi.sourceforge.net/DTD/sodipodi-0.dtd"
   xmlns="http://www.w3.org/2000/svg"
   xmlns:svg="http://www.w3.org/2000/svg"
   xmlns:rdf="http://www.w3.org/1999/02/22-rdf-syntax-ns#"
   xmlns:cc="http://creativecommons.org/ns#"
   xmlns:dc="http://purl.org/dc/elements/1.1/"><sodipodi:namedview
     id="namedview11"
     pagecolor="#ffffff"
     bordercolor="#000000"
     borderopacity="0.25"
     inkscape:showpageshadow="2"
     inkscape:pageopacity="0.0"
     inkscape:pagecheckerboard="0"
     inkscape:deskcolor="#d1d1d1"
     inkscape:document-units="mm"
     showgrid="false"
     inkscape:zoom="5.3495443"
     inkscape:cx="120.94488"
     inkscape:cy="166.93011"
     inkscape:window-width="1920"
     inkscape:window-height="1006"
     inkscape:window-x="0"
     inkscape:window-y="0"
     inkscape:window-maximized="1"
     inkscape:current-layer="svg831" /><metadata
     id="metadata837"><rdf:RDF><cc:Work
         rdf:about=""><dc:format>image/svg+xml</dc:format><dc:type
           rdf:resource="http://purl.org/dc/dcmitype/StillImage" /></cc:Work></rdf:RDF></metadata><defs
     id="defs835" /><path
     id="path823"
     style="opacity:1;fill:#d70500;fill-opacity:1;stroke:#000000;stroke-width:1.48252;stroke-miterlimit:4;stroke-dasharray:none;stroke-opacity:1;fill-rule:nonzero"
     d="M 62.024925,32.073188 46.950478,58.625973 16.925553,58.552782 1.9750743,31.926814 17.049521,5.3740289 47.074446,5.4472204 Z" /><path
     fill="#000000"
     d="m 22.232168,9.5906491 c 0,0 -1.929211,1.3223569 -2.060323,2.3581389 -0.131111,1.061071 1.648257,1.801851 1.460956,2.854491 -0.121749,0.69583 -1.55461,1.440358 -1.55461,1.440358 0,0 3.624305,-0.314668 3.961449,-1.713819 0.271593,-1.106958 -1.85429,-1.555547 -2.153978,-2.655014 -0.196671,-0.743591 0.346506,-2.2841549 0.346506,-2.2841549 z m 20.078841,0.4579569 c 0,0 -2.322554,1.271782 -2.331916,2.383424 -0.0094,0.678036 1.348578,0.811956 1.386034,1.489056 0.04681,0.801654 -1.432862,1.936708 -1.432862,1.936708 0,0 3.146679,-0.356811 3.568116,-1.589261 0.252852,-0.727672 -0.880322,-1.293327 -1.086355,-2.035046 -0.196672,-0.702382 -0.103017,-2.184881 -0.103017,-2.184881 z m -10.011326,0.02435 c 0,0 -2.519216,1.287706 -2.331916,2.383425 0.131111,0.742656 1.929212,0.245367 2.032228,0.992705 0.159215,1.218403 -2.772068,2.433059 -2.772068,2.433059 0,0 5.291295,-0.134858 5.50669,-2.085614 0.103016,-0.925273 -1.873023,-0.729542 -2.331917,-1.53869 -0.365239,-0.634018 -0.103017,-2.184885 -0.103017,-2.184885 z m -19.779152,7.840487 v 1.685724 h 38.958938 v -1.685724 z m 1.498421,3.465097 c -1.356067,8.138297 1.582706,12.933244 5.487966,15.752147 -0.337144,-2.322551 -1.320483,-4.598278 -3.283416,-6.761623 3.74231,0.983338 6.682955,4.570182 7.994077,8.166392 0.215395,-1.760643 0.215395,-2.57541 1.826204,-4.139385 -0.290326,2.322551 1.04889,2.481757 1.985401,2.191438 2.369382,-0.739845 3.333988,-3.699226 0.992701,-7.389086 4.457809,2.125884 4.52336,4.532723 5.27257,7.838613 -0.224766,-3.109223 2.275728,-4.354784 4.092561,-3.184144 -4.223672,2.125884 -0.767943,3.952084 0.646194,4.401612 3.746055,1.198736 6.555589,-4.336055 8.166389,-8.522269 0.44017,1.854295 0.07489,3.717956 -0.608729,5.572252 2.772078,-2.931285 4.485895,-7.332896 3.390178,-13.925947 z m 17.259936,16.407706 -16.22977,9.337034 c 0.252852,1.723183 0.842857,3.221605 1.760645,4.542088 l 8.61592,-4.130022 -7.370359,5.609712 c 0.318411,0.318416 0.664927,0.6181 1.030166,0.908418 l 6.995749,-4.01764 c 0,-0.06556 -0.0094,-0.140477 -0.0094,-0.206034 0,-3.483826 2.856361,-6.330826 6.349555,-6.330826 0.9927,0 1.929212,0.224763 2.762706,0.627464 -0.224756,-1.254929 -0.68365,-2.53795 -1.386034,-3.671131 l -8.887505,3.755417 7.726228,-5.291299 c -0.412067,-0.42143 -0.861589,-0.805401 -1.35794,-1.133181 z m 5.516061,5.394315 c 0.149835,0.674289 0.243489,1.348579 0.280946,2.004139 l 0.01872,0.365239 c 1.039528,1.123816 1.676352,2.631601 1.676352,4.279863 0,0.73048 -0.121741,1.432865 -0.355868,2.07906 l 8.559722,2.285092 c 0.430799,-0.590003 0.8054,-1.198738 1.105088,-1.816835 l -5.909394,-2.313188 6.56495,0.646193 c 0.08426,-0.280952 0.149844,-0.55254 0.206033,-0.833495 l -9.093538,-3.212239 9.29021,1.451595 c 0.01872,-0.543177 -0.0094,-1.09572 -0.0749,-1.657629 z m -4.373516,2.069693 c -2.547312,0 -4.598282,2.041598 -4.598282,4.579548 0,2.537952 2.05097,4.57955 4.598282,4.57955 2.556682,0 4.607644,-2.041598 4.607644,-4.57955 0,-2.53795 -2.050962,-4.579548 -4.607644,-4.579548 z m -0.458894,1.105086 c 4.101923,0 5.469233,6.705433 0,6.705433 2.491122,-2.163344 2.79081,-4.392246 0,-6.705433 z m 0.01872,0.917782 c -2.022867,1.67636 -1.807472,3.296527 0,4.869868 -3.970812,0 -2.978111,-4.869868 0,-4.869868 z"
     id="path336"
     style="stroke-width:0.0936511" /></svg>
